<mxfile host="app.diagrams.net" modified="2024-01-18T14:58:31.573Z" agent="Mozilla/5.0 (Windows NT 10.0; Win64; x64) AppleWebKit/537.36 (KHTML, like Gecko) Chrome/120.0.0.0 Safari/537.36 Edg/120.0.0.0" etag="T2uz6pr14yQ1OWiRKQiq" version="22.1.18" type="device">
  <diagram name="Page-1" id="7Lkr7qXKPWytcRPqfdGI">
    <mxGraphModel dx="868" dy="474" grid="1" gridSize="10" guides="1" tooltips="1" connect="1" arrows="1" fold="1" page="1" pageScale="1" pageWidth="827" pageHeight="1169" math="0" shadow="0">
      <root>
        <mxCell id="0" />
        <mxCell id="1" parent="0" />
        <mxCell id="nu2r_5dcXTPl4w9b9oYw-19" value="" style="shape=cylinder3;whiteSpace=wrap;html=1;boundedLbl=1;backgroundOutline=1;size=15;rotation=90;fillColor=#CCCCCC;fontColor=#333333;strokeColor=#666666;" vertex="1" parent="1">
          <mxGeometry x="8.5" y="356.28" width="111" height="40.25" as="geometry" />
        </mxCell>
        <mxCell id="nu2r_5dcXTPl4w9b9oYw-26" value="" style="shape=link;html=1;rounded=0;exitX=0.529;exitY=0.731;exitDx=0;exitDy=0;exitPerimeter=0;fillColor=#dae8fc;strokeColor=#6c8ebf;strokeWidth=2;width=0.8045977011494259;entryX=0.564;entryY=1.023;entryDx=0;entryDy=0;entryPerimeter=0;" edge="1" parent="1" source="nu2r_5dcXTPl4w9b9oYw-19" target="nu2r_5dcXTPl4w9b9oYw-20">
          <mxGeometry width="100" relative="1" as="geometry">
            <mxPoint x="64.26500000000011" y="342.2450000000002" as="sourcePoint" />
            <mxPoint x="63.73499999999994" y="397.74499999999995" as="targetPoint" />
            <Array as="points" />
          </mxGeometry>
        </mxCell>
        <mxCell id="nu2r_5dcXTPl4w9b9oYw-27" value="" style="shape=link;html=1;rounded=0;exitX=0.529;exitY=0.731;exitDx=0;exitDy=0;exitPerimeter=0;fillColor=#dae8fc;strokeColor=#6c8ebf;strokeWidth=2;width=0.8045977011494259;entryX=0;entryY=0;entryDx=0;entryDy=42.8521292429957;entryPerimeter=0;" edge="1" parent="1" target="nu2r_5dcXTPl4w9b9oYw-20">
          <mxGeometry width="100" relative="1" as="geometry">
            <mxPoint x="69" y="376" as="sourcePoint" />
            <mxPoint x="81" y="373" as="targetPoint" />
            <Array as="points" />
          </mxGeometry>
        </mxCell>
        <mxCell id="nu2r_5dcXTPl4w9b9oYw-24" value="" style="shape=link;html=1;rounded=0;exitX=0;exitY=0;exitDx=0;exitDy=15;exitPerimeter=0;fillColor=#dae8fc;strokeColor=#6c8ebf;strokeWidth=2;width=0.8045977011494259;entryX=0.5;entryY=1;entryDx=0;entryDy=0;entryPerimeter=0;" edge="1" parent="1">
          <mxGeometry width="100" relative="1" as="geometry">
            <mxPoint x="69.53500000000011" y="320.4950000000002" as="sourcePoint" />
            <mxPoint x="69.00499999999994" y="375.99499999999995" as="targetPoint" />
            <Array as="points" />
          </mxGeometry>
        </mxCell>
        <mxCell id="nu2r_5dcXTPl4w9b9oYw-25" value="" style="shape=link;html=1;rounded=0;exitX=0;exitY=0;exitDx=0;exitDy=15;exitPerimeter=0;fillColor=#dae8fc;strokeColor=#6c8ebf;strokeWidth=2;width=0.8045977011494259;" edge="1" parent="1">
          <mxGeometry width="100" relative="1" as="geometry">
            <mxPoint x="69" y="376" as="sourcePoint" />
            <mxPoint x="71" y="429" as="targetPoint" />
            <Array as="points" />
          </mxGeometry>
        </mxCell>
        <mxCell id="nu2r_5dcXTPl4w9b9oYw-20" value="" style="shape=cylinder3;whiteSpace=wrap;html=1;boundedLbl=1;backgroundOutline=1;size=2.5107415140086005;rotation=90;fillColor=#CCCCCC;fontColor=#333333;strokeColor=#666666;" vertex="1" parent="1">
          <mxGeometry x="93" y="347.00000000000006" width="10" height="58.81" as="geometry" />
        </mxCell>
        <mxCell id="nu2r_5dcXTPl4w9b9oYw-16" value="" style="shape=cylinder3;whiteSpace=wrap;html=1;boundedLbl=1;backgroundOutline=1;size=15;rotation=90;fillColor=#CCCCCC;fontColor=#333333;strokeColor=#666666;" vertex="1" parent="1">
          <mxGeometry x="119.5" y="323" width="61" height="103" as="geometry" />
        </mxCell>
        <mxCell id="nu2r_5dcXTPl4w9b9oYw-9" value="" style="rounded=0;whiteSpace=wrap;html=1;fillColor=#B3B3B3;fontColor=#333333;strokeColor=none;rotation=90;" vertex="1" parent="1">
          <mxGeometry x="574.38" y="22.380000000000003" width="31.25" height="20" as="geometry" />
        </mxCell>
        <mxCell id="YTniHSsE07-Fyv3oQMug-3" value="" style="rounded=0;whiteSpace=wrap;html=1;fillColor=#d5e8d4;strokeColor=#82b366;" parent="1" vertex="1">
          <mxGeometry x="460" y="47" width="250" height="186" as="geometry" />
        </mxCell>
        <mxCell id="nu2r_5dcXTPl4w9b9oYw-2" value="" style="rounded=0;whiteSpace=wrap;html=1;fillColor=#00CC00;strokeColor=#82b366;" vertex="1" parent="1">
          <mxGeometry x="473" y="83" width="20" height="140" as="geometry" />
        </mxCell>
        <mxCell id="YTniHSsE07-Fyv3oQMug-46" value="PC" style="shape=cube;whiteSpace=wrap;html=1;boundedLbl=1;backgroundOutline=1;darkOpacity=0.05;darkOpacity2=0.1;" parent="1" vertex="1">
          <mxGeometry x="69" y="86" width="140" height="201" as="geometry" />
        </mxCell>
        <mxCell id="YTniHSsE07-Fyv3oQMug-41" value="PmodHB5" style="rounded=0;whiteSpace=wrap;html=1;fillColor=#dae8fc;strokeColor=#6c8ebf;" parent="1" vertex="1">
          <mxGeometry x="348" y="350" width="120" height="40" as="geometry" />
        </mxCell>
        <mxCell id="YTniHSsE07-Fyv3oQMug-1" value="PCI 6221" style="rounded=0;whiteSpace=wrap;html=1;fillColor=#dae8fc;strokeColor=#6c8ebf;" parent="1" vertex="1">
          <mxGeometry x="90" y="107" width="120" height="60" as="geometry" />
        </mxCell>
        <mxCell id="YTniHSsE07-Fyv3oQMug-2" value="" style="rounded=0;whiteSpace=wrap;html=1;fillColor=#B3B3B3;fontColor=#333333;strokeColor=none;" parent="1" vertex="1">
          <mxGeometry x="209" y="127" width="221" height="20" as="geometry" />
        </mxCell>
        <mxCell id="YTniHSsE07-Fyv3oQMug-4" value="" style="rounded=0;whiteSpace=wrap;html=1;fillColor=#00CC00;strokeColor=#82b366;" parent="1" vertex="1">
          <mxGeometry x="520" y="84" width="20" height="140" as="geometry" />
        </mxCell>
        <mxCell id="YTniHSsE07-Fyv3oQMug-5" value="" style="rounded=0;whiteSpace=wrap;html=1;fillColor=#00CC00;strokeColor=#82b366;" parent="1" vertex="1">
          <mxGeometry x="570" y="84" width="20" height="140" as="geometry" />
        </mxCell>
        <mxCell id="YTniHSsE07-Fyv3oQMug-6" value="" style="rounded=0;whiteSpace=wrap;html=1;fillColor=#00CC00;strokeColor=#82b366;" parent="1" vertex="1">
          <mxGeometry x="620" y="84" width="20" height="140" as="geometry" />
        </mxCell>
        <mxCell id="YTniHSsE07-Fyv3oQMug-7" value="" style="rounded=0;whiteSpace=wrap;html=1;fillColor=#00CC00;strokeColor=#82b366;" parent="1" vertex="1">
          <mxGeometry x="670" y="84" width="20" height="140" as="geometry" />
        </mxCell>
        <mxCell id="YTniHSsE07-Fyv3oQMug-9" value="Bornero" style="text;html=1;align=center;verticalAlign=middle;resizable=0;points=[];autosize=1;strokeColor=none;fillColor=none;" parent="1" vertex="1">
          <mxGeometry x="650" y="47" width="70" height="30" as="geometry" />
        </mxCell>
        <mxCell id="YTniHSsE07-Fyv3oQMug-10" value="" style="rounded=0;whiteSpace=wrap;html=1;fillColor=#ffe6cc;strokeColor=#d79b00;" parent="1" vertex="1">
          <mxGeometry x="585" y="274" width="40" height="60" as="geometry" />
        </mxCell>
        <mxCell id="YTniHSsE07-Fyv3oQMug-11" value="" style="endArrow=none;html=1;rounded=0;exitX=-0.006;exitY=0.67;exitDx=0;exitDy=0;exitPerimeter=0;strokeColor=#1A1A1A;" parent="1" edge="1" source="YTniHSsE07-Fyv3oQMug-10">
          <mxGeometry width="50" height="50" relative="1" as="geometry">
            <mxPoint x="590" y="314.04" as="sourcePoint" />
            <mxPoint x="627" y="207" as="targetPoint" />
            <Array as="points">
              <mxPoint x="575" y="314" />
              <mxPoint x="575" y="247" />
              <mxPoint x="615" y="247" />
              <mxPoint x="615" y="207" />
            </Array>
          </mxGeometry>
        </mxCell>
        <mxCell id="YTniHSsE07-Fyv3oQMug-12" value="" style="endArrow=none;html=1;rounded=0;exitX=0.25;exitY=0;exitDx=0;exitDy=0;strokeColor=#1A1A1A;entryX=0.6;entryY=0.683;entryDx=0;entryDy=0;entryPerimeter=0;" parent="1" source="YTniHSsE07-Fyv3oQMug-10" edge="1">
          <mxGeometry width="50" height="50" relative="1" as="geometry">
            <mxPoint x="601" y="274" as="sourcePoint" />
            <mxPoint x="626" y="174.038" as="targetPoint" />
            <Array as="points">
              <mxPoint x="595" y="174" />
            </Array>
          </mxGeometry>
        </mxCell>
        <mxCell id="YTniHSsE07-Fyv3oQMug-13" value="" style="endArrow=none;html=1;rounded=0;exitX=0.669;exitY=0.002;exitDx=0;exitDy=0;strokeColor=#1A1A1A;exitPerimeter=0;" parent="1" edge="1" source="YTniHSsE07-Fyv3oQMug-10">
          <mxGeometry width="50" height="50" relative="1" as="geometry">
            <mxPoint x="619" y="275.5" as="sourcePoint" />
            <mxPoint x="626" y="97" as="targetPoint" />
            <Array as="points">
              <mxPoint x="610" y="97" />
            </Array>
          </mxGeometry>
        </mxCell>
        <mxCell id="YTniHSsE07-Fyv3oQMug-14" value="" style="endArrow=none;html=1;rounded=0;strokeColor=#1A1A1A;exitX=1.011;exitY=0.844;exitDx=0;exitDy=0;exitPerimeter=0;" parent="1" edge="1" source="YTniHSsE07-Fyv3oQMug-10">
          <mxGeometry width="50" height="50" relative="1" as="geometry">
            <mxPoint x="618" y="324" as="sourcePoint" />
            <mxPoint x="580" y="175" as="targetPoint" />
            <Array as="points">
              <mxPoint x="673" y="325" />
              <mxPoint x="673" y="255" />
              <mxPoint x="593" y="255" />
              <mxPoint x="593" y="175" />
            </Array>
          </mxGeometry>
        </mxCell>
        <mxCell id="YTniHSsE07-Fyv3oQMug-15" value="" style="endArrow=none;html=1;rounded=0;entryX=0;entryY=0.25;entryDx=0;entryDy=0;strokeColor=#1A1A1A;" parent="1" target="YTniHSsE07-Fyv3oQMug-10" edge="1">
          <mxGeometry width="50" height="50" relative="1" as="geometry">
            <mxPoint x="577" y="165" as="sourcePoint" />
            <mxPoint x="593" y="320" as="targetPoint" />
            <Array as="points">
              <mxPoint x="558" y="165" />
              <mxPoint x="560" y="289" />
            </Array>
          </mxGeometry>
        </mxCell>
        <mxCell id="YTniHSsE07-Fyv3oQMug-16" value="" style="endArrow=none;html=1;rounded=0;exitX=0.989;exitY=0.214;exitDx=0;exitDy=0;exitPerimeter=0;strokeColor=#1A1A1A;" parent="1" source="YTniHSsE07-Fyv3oQMug-10" edge="1">
          <mxGeometry width="50" height="50" relative="1" as="geometry">
            <mxPoint x="630" y="287" as="sourcePoint" />
            <mxPoint x="677" y="97" as="targetPoint" />
            <Array as="points">
              <mxPoint x="656" y="287" />
              <mxPoint x="656" y="97" />
            </Array>
          </mxGeometry>
        </mxCell>
        <mxCell id="YTniHSsE07-Fyv3oQMug-24" value="" style="shape=trapezoid;perimeter=trapezoidPerimeter;whiteSpace=wrap;html=1;fixedSize=1;size=5;rotation=-180;fillColor=#B3B3B3;fontColor=#333333;strokeColor=#666666;" parent="1" vertex="1">
          <mxGeometry x="585" y="334" width="40" height="20" as="geometry" />
        </mxCell>
        <mxCell id="YTniHSsE07-Fyv3oQMug-17" value="" style="endArrow=none;html=1;rounded=0;" parent="1" edge="1">
          <mxGeometry width="50" height="50" relative="1" as="geometry">
            <mxPoint x="591" y="337" as="sourcePoint" />
            <mxPoint x="591" y="324" as="targetPoint" />
          </mxGeometry>
        </mxCell>
        <mxCell id="YTniHSsE07-Fyv3oQMug-18" value="" style="endArrow=none;html=1;rounded=0;" parent="1" edge="1">
          <mxGeometry width="50" height="50" relative="1" as="geometry">
            <mxPoint x="603" y="337" as="sourcePoint" />
            <mxPoint x="602.91" y="324" as="targetPoint" />
          </mxGeometry>
        </mxCell>
        <mxCell id="YTniHSsE07-Fyv3oQMug-19" value="" style="endArrow=none;html=1;rounded=0;" parent="1" edge="1">
          <mxGeometry width="50" height="50" relative="1" as="geometry">
            <mxPoint x="620" y="337" as="sourcePoint" />
            <mxPoint x="620" y="324" as="targetPoint" />
          </mxGeometry>
        </mxCell>
        <mxCell id="YTniHSsE07-Fyv3oQMug-20" value="" style="endArrow=none;html=1;rounded=0;" parent="1" edge="1">
          <mxGeometry width="50" height="50" relative="1" as="geometry">
            <mxPoint x="609" y="337" as="sourcePoint" />
            <mxPoint x="609" y="324" as="targetPoint" />
            <Array as="points">
              <mxPoint x="609" y="334" />
            </Array>
          </mxGeometry>
        </mxCell>
        <mxCell id="YTniHSsE07-Fyv3oQMug-21" value="" style="endArrow=none;html=1;rounded=0;" parent="1" edge="1">
          <mxGeometry width="50" height="50" relative="1" as="geometry">
            <mxPoint x="597" y="337" as="sourcePoint" />
            <mxPoint x="597" y="324" as="targetPoint" />
          </mxGeometry>
        </mxCell>
        <mxCell id="YTniHSsE07-Fyv3oQMug-22" value="" style="endArrow=none;html=1;rounded=0;" parent="1" edge="1">
          <mxGeometry width="50" height="50" relative="1" as="geometry">
            <mxPoint x="615" y="337" as="sourcePoint" />
            <mxPoint x="615" y="324" as="targetPoint" />
            <Array as="points">
              <mxPoint x="615" y="334" />
            </Array>
          </mxGeometry>
        </mxCell>
        <mxCell id="YTniHSsE07-Fyv3oQMug-26" value="" style="rounded=0;whiteSpace=wrap;html=1;fillColor=#B3B3B3;fontColor=#333333;strokeColor=none;rotation=-90;" parent="1" vertex="1">
          <mxGeometry x="593.75" y="359.75" width="22.5" height="10" as="geometry" />
        </mxCell>
        <mxCell id="YTniHSsE07-Fyv3oQMug-27" value="" style="rounded=0;whiteSpace=wrap;html=1;fillColor=#B3B3B3;fontColor=#333333;strokeColor=none;rotation=0;" parent="1" vertex="1">
          <mxGeometry x="482.5" y="366" width="125" height="10" as="geometry" />
        </mxCell>
        <mxCell id="YTniHSsE07-Fyv3oQMug-28" value="" style="shape=trapezoid;perimeter=trapezoidPerimeter;whiteSpace=wrap;html=1;fixedSize=1;size=10.000000000000114;rotation=90;fillColor=#B3B3B3;fontColor=#333333;strokeColor=#666666;" parent="1" vertex="1">
          <mxGeometry x="458" y="360" width="40" height="20" as="geometry" />
        </mxCell>
        <mxCell id="YTniHSsE07-Fyv3oQMug-29" value="" style="endArrow=none;html=1;rounded=0;" parent="1" edge="1">
          <mxGeometry width="50" height="50" relative="1" as="geometry">
            <mxPoint x="453" y="375.93" as="sourcePoint" />
            <mxPoint x="473" y="375.93" as="targetPoint" />
          </mxGeometry>
        </mxCell>
        <mxCell id="YTniHSsE07-Fyv3oQMug-35" value="" style="endArrow=none;html=1;rounded=0;" parent="1" edge="1">
          <mxGeometry width="50" height="50" relative="1" as="geometry">
            <mxPoint x="453" y="380.43" as="sourcePoint" />
            <mxPoint x="473" y="380.43" as="targetPoint" />
          </mxGeometry>
        </mxCell>
        <mxCell id="YTniHSsE07-Fyv3oQMug-36" value="" style="endArrow=none;html=1;rounded=0;" parent="1" edge="1">
          <mxGeometry width="50" height="50" relative="1" as="geometry">
            <mxPoint x="453" y="372.43" as="sourcePoint" />
            <mxPoint x="473" y="372.43" as="targetPoint" />
          </mxGeometry>
        </mxCell>
        <mxCell id="YTniHSsE07-Fyv3oQMug-37" value="" style="endArrow=none;html=1;rounded=0;" parent="1" edge="1">
          <mxGeometry width="50" height="50" relative="1" as="geometry">
            <mxPoint x="453" y="367.93" as="sourcePoint" />
            <mxPoint x="473" y="367.93" as="targetPoint" />
          </mxGeometry>
        </mxCell>
        <mxCell id="YTniHSsE07-Fyv3oQMug-38" value="" style="endArrow=none;html=1;rounded=0;" parent="1" edge="1">
          <mxGeometry width="50" height="50" relative="1" as="geometry">
            <mxPoint x="453" y="363.93" as="sourcePoint" />
            <mxPoint x="473" y="363.93" as="targetPoint" />
          </mxGeometry>
        </mxCell>
        <mxCell id="YTniHSsE07-Fyv3oQMug-39" value="" style="endArrow=none;html=1;rounded=0;" parent="1" edge="1">
          <mxGeometry width="50" height="50" relative="1" as="geometry">
            <mxPoint x="453" y="358.93" as="sourcePoint" />
            <mxPoint x="473" y="358.93" as="targetPoint" />
          </mxGeometry>
        </mxCell>
        <mxCell id="YTniHSsE07-Fyv3oQMug-42" value="" style="shape=cylinder3;whiteSpace=wrap;html=1;boundedLbl=1;backgroundOutline=1;size=15;rotation=90;" parent="1" vertex="1">
          <mxGeometry x="197" y="323" width="61" height="103" as="geometry" />
        </mxCell>
        <mxCell id="YTniHSsE07-Fyv3oQMug-44" value="" style="endArrow=none;html=1;rounded=0;entryX=0.083;entryY=0.25;entryDx=0;entryDy=0;entryPerimeter=0;" parent="1" target="YTniHSsE07-Fyv3oQMug-41" edge="1">
          <mxGeometry width="50" height="50" relative="1" as="geometry">
            <mxPoint x="266" y="350" as="sourcePoint" />
            <mxPoint x="336" y="360" as="targetPoint" />
            <Array as="points">
              <mxPoint x="296" y="350" />
              <mxPoint x="296" y="360" />
            </Array>
          </mxGeometry>
        </mxCell>
        <mxCell id="YTniHSsE07-Fyv3oQMug-45" value="" style="endArrow=none;html=1;rounded=0;" parent="1" edge="1">
          <mxGeometry width="50" height="50" relative="1" as="geometry">
            <mxPoint x="266" y="395" as="sourcePoint" />
            <mxPoint x="358" y="385" as="targetPoint" />
            <Array as="points">
              <mxPoint x="296" y="395" />
              <mxPoint x="296" y="385" />
            </Array>
          </mxGeometry>
        </mxCell>
        <mxCell id="nu2r_5dcXTPl4w9b9oYw-1" value="&lt;font style=&quot;font-size: 6px;&quot;&gt;46&lt;/font&gt;" style="text;html=1;align=center;verticalAlign=middle;resizable=0;points=[];autosize=1;strokeColor=none;fillColor=none;" vertex="1" parent="1">
          <mxGeometry x="615" y="157" width="30" height="30" as="geometry" />
        </mxCell>
        <mxCell id="nu2r_5dcXTPl4w9b9oYw-3" value="&lt;font style=&quot;font-size: 6px;&quot;&gt;2&lt;/font&gt;" style="text;html=1;align=center;verticalAlign=middle;resizable=0;points=[];autosize=1;strokeColor=none;fillColor=none;" vertex="1" parent="1">
          <mxGeometry x="670" y="79" width="30" height="30" as="geometry" />
        </mxCell>
        <mxCell id="nu2r_5dcXTPl4w9b9oYw-4" value="&lt;font style=&quot;font-size: 6px;&quot;&gt;52&lt;/font&gt;" style="text;html=1;align=center;verticalAlign=middle;resizable=0;points=[];autosize=1;strokeColor=none;fillColor=none;" vertex="1" parent="1">
          <mxGeometry x="560" y="157" width="30" height="30" as="geometry" />
        </mxCell>
        <mxCell id="nu2r_5dcXTPl4w9b9oYw-5" value="&lt;font style=&quot;font-size: 6px;&quot;&gt;42&lt;/font&gt;" style="text;html=1;align=center;verticalAlign=middle;resizable=0;points=[];autosize=1;strokeColor=none;fillColor=none;" vertex="1" parent="1">
          <mxGeometry x="615" y="79" width="30" height="30" as="geometry" />
        </mxCell>
        <mxCell id="nu2r_5dcXTPl4w9b9oYw-6" value="&lt;font style=&quot;font-size: 6px;&quot;&gt;18&lt;/font&gt;" style="text;html=1;align=center;verticalAlign=middle;resizable=0;points=[];autosize=1;strokeColor=none;fillColor=none;" vertex="1" parent="1">
          <mxGeometry x="565" y="147" width="30" height="30" as="geometry" />
        </mxCell>
        <mxCell id="nu2r_5dcXTPl4w9b9oYw-7" value="" style="rounded=0;whiteSpace=wrap;html=1;fillColor=#B3B3B3;fontColor=#333333;strokeColor=none;rotation=90;" vertex="1" parent="1">
          <mxGeometry x="357.5" y="68.5" width="125" height="20" as="geometry" />
        </mxCell>
        <mxCell id="nu2r_5dcXTPl4w9b9oYw-8" value="" style="rounded=0;whiteSpace=wrap;html=1;fillColor=#B3B3B3;fontColor=#333333;strokeColor=none;" vertex="1" parent="1">
          <mxGeometry x="414" y="17" width="170" height="20" as="geometry" />
        </mxCell>
        <mxCell id="nu2r_5dcXTPl4w9b9oYw-10" value="" style="rounded=0;whiteSpace=wrap;html=1;fillColor=#1A1A1A;" vertex="1" parent="1">
          <mxGeometry x="550" y="47" width="80" height="20" as="geometry" />
        </mxCell>
        <mxCell id="nu2r_5dcXTPl4w9b9oYw-11" value="&lt;font style=&quot;font-size: 6px;&quot;&gt;14&lt;/font&gt;" style="text;html=1;align=center;verticalAlign=middle;resizable=0;points=[];autosize=1;strokeColor=none;fillColor=none;" vertex="1" parent="1">
          <mxGeometry x="615" y="190" width="30" height="30" as="geometry" />
        </mxCell>
        <mxCell id="nu2r_5dcXTPl4w9b9oYw-13" value="" style="ellipse;whiteSpace=wrap;html=1;strokeColor=none;" vertex="1" parent="1">
          <mxGeometry x="618" y="338.25" width="5" height="1.5" as="geometry" />
        </mxCell>
        <mxCell id="nu2r_5dcXTPl4w9b9oYw-14" value="&lt;font style=&quot;font-size: 5px;&quot;&gt;1&lt;/font&gt;" style="text;html=1;align=center;verticalAlign=middle;resizable=0;points=[];autosize=1;strokeColor=none;fillColor=none;" vertex="1" parent="1">
          <mxGeometry x="435" y="363" width="30" height="30" as="geometry" />
        </mxCell>
        <mxCell id="nu2r_5dcXTPl4w9b9oYw-15" value="" style="ellipse;whiteSpace=wrap;html=1;strokeColor=none;" vertex="1" parent="1">
          <mxGeometry x="476.5" y="380" width="3" height="1.5" as="geometry" />
        </mxCell>
        <mxCell id="nu2r_5dcXTPl4w9b9oYw-17" value="Multiplicadora&lt;br&gt;&lt;span style=&quot;white-space: pre;&quot;&gt;&#x9;&lt;/span&gt;x53" style="text;whiteSpace=wrap;html=1;" vertex="1" parent="1">
          <mxGeometry x="110" y="407" width="80" height="20" as="geometry" />
        </mxCell>
        <mxCell id="nu2r_5dcXTPl4w9b9oYw-18" value="&lt;span style=&quot;color: rgb(0, 0, 0); font-family: Helvetica; font-size: 12px; font-style: normal; font-variant-ligatures: normal; font-variant-caps: normal; font-weight: 400; letter-spacing: normal; orphans: 2; text-align: center; text-indent: 0px; text-transform: none; widows: 2; word-spacing: 0px; -webkit-text-stroke-width: 0px; background-color: rgb(255, 255, 255); text-decoration-thickness: initial; text-decoration-style: initial; text-decoration-color: initial; float: none; display: inline !important;&quot;&gt;Motor DC&lt;/span&gt;" style="text;whiteSpace=wrap;html=1;" vertex="1" parent="1">
          <mxGeometry x="209" y="320" width="61" height="27" as="geometry" />
        </mxCell>
        <mxCell id="nu2r_5dcXTPl4w9b9oYw-28" value="&lt;font style=&quot;font-size: 10px;&quot;&gt;Rueda &lt;br style=&quot;&quot;&gt;de aspas&lt;/font&gt;" style="text;html=1;align=center;verticalAlign=middle;resizable=0;points=[];autosize=1;strokeColor=none;fillColor=none;" vertex="1" parent="1">
          <mxGeometry x="34" y="287" width="60" height="40" as="geometry" />
        </mxCell>
      </root>
    </mxGraphModel>
  </diagram>
</mxfile>
